<?xml version="1.0" standalone="no"?>
<!DOCTYPE svg PUBLIC "-//W3C//DTD SVG 20010904//EN"
 "http://www.w3.org/TR/2001/REC-SVG-20010904/DTD/svg10.dtd">
<svg version="1.0" xmlns="http://www.w3.org/2000/svg"
 width="316.000000pt" height="316.000000pt" viewBox="0 0 316.000000 316.000000"
 preserveAspectRatio="xMidYMid meet">
<metadata>
Created by potrace 1.11, written by Peter Selinger 2001-2013
</metadata>
<g transform="translate(0.000000,316.000000) scale(0.100000,-0.100000)"
fill="#000000" stroke="none">
<path d="M23 2838 c4 -11 461 -1150 880 -2193 l125 -310 234 -3 235 -2 22 51
c12 29 23 50 26 47 3 -3 30 -65 60 -139 l54 -134 238 0 238 0 337 830 c302
742 668 1663 668 1679 0 4 -136 5 -302 4 l-302 -3 -317 -792 c-173 -436 -318
-795 -321 -798 -3 -3 -15 21 -28 54 l-22 60 20 53 c29 78 633 1592 639 1601 2
4 -132 7 -299 7 l-303 0 -176 -443 c-97 -243 -180 -442 -184 -442 -4 0 -71
159 -148 353 l-141 352 -282 0 -281 0 -35 88 -35 87 -302 3 c-241 2 -302 0
-298 -10z"/>
</g>
</svg>
